<?xml version="1.0" encoding="UTF-8" standalone="no"?>
<svg
   xmlns:dc="http://purl.org/dc/elements/1.1/"
   xmlns:cc="http://creativecommons.org/ns#"
   xmlns:rdf="http://www.w3.org/1999/02/22-rdf-syntax-ns#"
   xmlns:svg="http://www.w3.org/2000/svg"
   xmlns="http://www.w3.org/2000/svg"
   xmlns:sodipodi="http://sodipodi.sourceforge.net/DTD/sodipodi-0.dtd"
   xmlns:inkscape="http://www.inkscape.org/namespaces/inkscape"
   version="1.1"
   x="0px"
   y="0px"
   viewBox="325.5 534.5 70 50"
   enable-background="new 325.5 534.5 100 100"
   xml:space="preserve"
   id="svg3457"
   inkscape:version="0.91 r13725"
   sodipodi:docname="mouse.svg"
   width="70"
   height="50"><metadata
     id="metadata3469"><rdf:RDF><cc:Work
         rdf:about=""><dc:format>image/svg+xml</dc:format><dc:type
           rdf:resource="http://purl.org/dc/dcmitype/StillImage" /><dc:title></dc:title></cc:Work></rdf:RDF></metadata><defs
     id="defs3467" /><sodipodi:namedview
     pagecolor="#ffffff"
     bordercolor="#666666"
     borderopacity="1"
     objecttolerance="10"
     gridtolerance="10"
     guidetolerance="10"
     inkscape:pageopacity="0"
     inkscape:pageshadow="2"
     inkscape:window-width="664"
     inkscape:window-height="480"
     id="namedview3465"
     showgrid="false"
     inkscape:zoom="1.888"
     inkscape:cx="48.749121"
     inkscape:cy="-6.0255538"
     inkscape:window-x="0"
     inkscape:window-y="0"
     inkscape:window-maximized="0"
     inkscape:current-layer="svg3457" /><path
     d="m 391.6035,562.67486 c -0.097,-0.345 -0.442,-0.562 -0.788,-0.511 l -21.849,3.302 -4.41,-11.583 c -0.071,-0.188 -0.218,-0.336 -0.404,-0.408 l -6.061,-2.363 2.843,-12.204 c 0.061,-0.264 -0.032,-0.538 -0.241,-0.709 -0.208,-0.172 -0.495,-0.209 -0.743,-0.097 l -1.901,0.865 -0.632,-3.282 c -0.041,-0.209 -0.173,-0.39 -0.36,-0.49 -0.186,-0.101 -0.41,-0.111 -0.607,-0.03 l -11.39,4.721 c -0.165,0.068 -0.299,0.196 -0.373,0.359 l -2.066,4.52 -11.944,-4.637 c -0.264,-0.104 -0.556,-0.04 -0.754,0.155 -0.199,0.195 -0.265,0.489 -0.167,0.751 l 12.376,33.393 c 0.104,0.282 0.372,0.463 0.664,0.463 0.045,0 0.092,-0.005 0.138,-0.014 0.014,-0.003 0.023,-0.011 0.036,-0.015 0.005,10e-4 0.008,0.003 0.013,0.003 l 20.079,0.129 c 0.002,0 0.003,0 0.005,0 0.089,0 0.177,-0.017 0.26,-0.05 l 7.392,-2.912 c 0.002,-10e-4 0.003,-0.003 0.005,-0.003 0.003,-0.002 0.005,-10e-4 0.008,-0.002 l 20.464,-8.506 c 0.327,-0.138 0.502,-0.5 0.407,-0.845 z m -45.949,-13.557 8.223,4.261 -10.655,0.821 2.432,-5.082 z m 10.544,3.869 -9.933,-5.146 1.196,-2.499 11.765,-5.354 -3.028,12.999 z m -10.34,-11.9 10.33,-4.281 0.531,2.766 -10.08,4.587 c -0.151,0.068 -0.273,0.188 -0.346,0.339 l -0.683,1.428 -1.669,-0.647 1.917,-4.192 z m -4.402,13.52 c -0.049,0.104 -0.072,0.217 -0.068,0.331 l 0.538,14.861 -10.296,-27.781 13.367,5.189 -3.541,7.4 z m 21.476,18.966 -19.455,-0.125 -0.65,-17.938 c 0.127,0.08 0.279,0.12 0.437,0.109 l 13.512,-1.041 c 0.308,-0.024 0.565,-0.245 0.636,-0.546 l 0.355,-1.526 5.577,2.175 6.202,16.288 -6.614,2.604 z m 7.926,-3.136 -1.376,-3.615 15.827,-2.392 -14.451,6.007 z"
     id="path3459"
     inkscape:connector-curvature="0"
     style="fill:#ffffff;stroke-width:1;stroke-miterlimit:4;stroke-dasharray:none" /></svg>