<svg xmlns="http://www.w3.org/2000/svg" xmlns:xlink="http://www.w3.org/1999/xlink" version="1.1" x="0px" y="0px" viewBox="325.5 534.5 100 125" enable-background="new 325.5 534.5 100 100" xml:space="preserve"><path fill="#000000" d="M406.434,592.124c-0.097-0.345-0.442-0.562-0.788-0.511l-21.849,3.302l-4.41-11.583  c-0.071-0.188-0.218-0.336-0.404-0.408l-6.061-2.363l2.843-12.204c0.061-0.264-0.032-0.538-0.241-0.709  c-0.208-0.172-0.495-0.209-0.743-0.097l-1.901,0.865l-0.632-3.282c-0.041-0.209-0.173-0.39-0.36-0.49  c-0.186-0.101-0.41-0.111-0.607-0.03l-11.39,4.721c-0.165,0.068-0.299,0.196-0.373,0.359l-2.066,4.52l-11.944-4.637  c-0.264-0.104-0.556-0.04-0.754,0.155c-0.199,0.195-0.265,0.489-0.167,0.751l12.376,33.393c0.104,0.282,0.372,0.463,0.664,0.463  c0.045,0,0.092-0.005,0.138-0.014c0.014-0.003,0.023-0.011,0.036-0.015c0.005,0.001,0.008,0.003,0.013,0.003l20.079,0.129  c0.002,0,0.003,0,0.005,0c0.089,0,0.177-0.017,0.26-0.05l7.392-2.912c0.002-0.001,0.003-0.003,0.005-0.003  c0.003-0.002,0.005-0.001,0.008-0.002l20.464-8.506C406.354,592.831,406.529,592.469,406.434,592.124z M360.485,578.567l8.223,4.261  l-10.655,0.821L360.485,578.567z M371.029,582.436l-9.933-5.146l1.196-2.499l11.765-5.354L371.029,582.436z M360.689,570.536  l10.33-4.281l0.531,2.766l-10.08,4.587c-0.151,0.068-0.273,0.188-0.346,0.339l-0.683,1.428l-1.669-0.647L360.689,570.536z   M356.287,584.056c-0.049,0.104-0.072,0.217-0.068,0.331l0.538,14.861l-10.296-27.781l13.367,5.189L356.287,584.056z   M377.763,603.022l-19.455-0.125l-0.65-17.938c0.127,0.08,0.279,0.12,0.437,0.109l13.512-1.041c0.308-0.024,0.565-0.245,0.636-0.546  l0.355-1.526l5.577,2.175l6.202,16.288L377.763,603.022z M385.689,599.886l-1.376-3.615l15.827-2.392L385.689,599.886z"/><text x="325.5" y="649.5" fill="#000000" font-size="5px" font-weight="bold" font-family="'Helvetica Neue', Helvetica, Arial-Unicode, Arial, Sans-serif">Created by Agne Alesiute</text><text x="325.5" y="654.5" fill="#000000" font-size="5px" font-weight="bold" font-family="'Helvetica Neue', Helvetica, Arial-Unicode, Arial, Sans-serif">from the Noun Project</text></svg>